<svg
    xmlns="http://www.w3.org/2000/svg"
    viewBox="0 0 24 24"
    id="vector">
    <path
        id="path"
        d="M 12 2 C 6.48 2 2 6.48 2 12 C 2 17.52 6.48 22 12 22 C 17.52 22 22 17.52 22 12 C 22 6.48 17.52 2 12 2 Z M 12 16.5 C 9.51 16.5 7.5 14.49 7.5 12 C 7.5 9.51 9.51 7.5 12 7.5 C 14.49 7.5 16.5 9.51 16.5 12 C 16.5 14.49 14.49 16.5 12 16.5 Z M 12 11 C 11.45 11 11 11.45 11 12 C 11 12.55 11.45 13 12 13 C 12.55 13 13 12.55 13 12 C 13 11.45 12.55 11 12 11 Z"
        fill="#1a1a1a"/>
</svg>
