<svg
    xmlns="http://www.w3.org/2000/svg"
    viewBox="0 0 24 24"
    id="vector">
    <path
        id="path"
        d="M 21.5 11 C 21.78 11 22 10.78 22 10.5 L 22 9.26 C 22 9.1 21.92 8.94 21.79 8.85 L 12.57 2.4 C 12.23 2.16 11.77 2.16 11.42 2.4 L 2.21 8.85 C 2.08 8.94 2 9.1 2 9.26 L 2 10.5 C 2 10.78 2.22 11 2.5 11 L 4 11 L 4 20 L 3 20 C 2.45 20 2 20.45 2 21 C 2 21.55 2.45 22 3 22 L 21 22 C 21.55 22 22 21.55 22 21 C 22 20.45 21.55 20 21 20 L 20 20 L 20 11 L 21.5 11 Z M 16 17 C 16 17.55 15.55 18 15 18 C 14.45 18 14 17.55 14 17 L 14 14 L 12.83 15.75 C 12.43 16.34 11.56 16.34 11.17 15.75 L 10 14 L 10 17 C 10 17.55 9.55 18 9 18 C 8.45 18 8 17.55 8 17 L 8 12.3 C 8 11.58 8.58 11 9.3 11 L 9.3 11 C 9.73 11 10.14 11.22 10.38 11.58 L 12 14 L 13.61 11.58 C 13.86 11.22 14.26 11 14.7 11 L 14.7 11 C 15.42 11 16 11.58 16 12.3 L 16 17 Z"
        fill="#1a1a1a"/>
</svg>
