<svg
    xmlns="http://www.w3.org/2000/svg"
    viewBox="0 0 24 24"
    id="vector">
    <path
        id="path"
        d="M 12 2 C 6.48 2 2 6.48 2 12 C 2 17.52 6.48 22 12 22 C 17.52 22 22 17.52 22 12 C 22 6.48 17.52 2 12 2 Z M 10 16 L 10 16 C 9.45 16 9 15.55 9 15 L 9 9 C 9 8.45 9.45 8 10 8 L 10 8 C 10.55 8 11 8.45 11 9 L 11 15 C 11 15.55 10.55 16 10 16 Z M 14 16 L 14 16 C 13.45 16 13 15.55 13 15 L 13 9 C 13 8.45 13.45 8 14 8 L 14 8 C 14.55 8 15 8.45 15 9 L 15 15 C 15 15.55 14.55 16 14 16 Z"
        fill="#ffffff"/>
</svg>
