<svg
    xmlns="http://www.w3.org/2000/svg"
    viewBox="0 0 20 20"
    id="vector">
    <path
        id="path"
        d="M 7.175 18.333 C 6.768 18.331 6.373 18.196 6.05 17.95 L 4.325 16.667 C 3.927 16.356 3.663 15.905 3.587 15.406 C 3.511 14.907 3.629 14.398 3.917 13.983 C 4.069 13.758 4.166 13.501 4.199 13.231 C 4.232 12.962 4.201 12.688 4.108 12.433 L 4.058 12.3 C 3.994 12.069 3.875 11.857 3.713 11.68 C 3.551 11.503 3.35 11.367 3.125 11.283 L 2.992 11.283 C 2.505 11.12 2.102 10.771 1.871 10.312 C 1.641 9.853 1.6 9.322 1.758 8.833 L 2.442 6.667 C 2.505 6.416 2.62 6.181 2.781 5.978 C 2.942 5.776 3.145 5.61 3.375 5.492 C 3.59 5.381 3.824 5.315 4.065 5.298 C 4.305 5.281 4.547 5.313 4.775 5.392 C 5.023 5.475 5.288 5.497 5.547 5.455 C 5.805 5.413 6.049 5.308 6.258 5.15 L 6.367 5.067 C 6.556 4.916 6.709 4.724 6.814 4.507 C 6.919 4.289 6.974 4.05 6.975 3.808 L 6.975 3.608 C 6.973 3.098 7.172 2.608 7.529 2.245 C 7.887 1.881 8.373 1.673 8.883 1.667 L 11.008 1.667 C 11.256 1.667 11.502 1.717 11.731 1.813 C 11.96 1.909 12.167 2.049 12.342 2.225 C 12.709 2.598 12.912 3.102 12.908 3.625 L 12.908 3.858 C 12.904 4.088 12.954 4.316 13.054 4.523 C 13.154 4.73 13.301 4.91 13.483 5.05 L 13.575 5.117 C 13.762 5.257 13.98 5.35 14.211 5.388 C 14.442 5.425 14.678 5.407 14.9 5.333 L 15.183 5.242 C 15.423 5.162 15.677 5.132 15.929 5.152 C 16.181 5.173 16.427 5.244 16.65 5.361 C 16.874 5.479 17.073 5.64 17.233 5.836 C 17.393 6.031 17.512 6.257 17.583 6.5 L 18.242 8.6 C 18.394 9.085 18.352 9.611 18.125 10.066 C 17.899 10.521 17.504 10.871 17.025 11.042 L 16.858 11.1 C 16.613 11.18 16.392 11.319 16.213 11.505 C 16.034 11.691 15.904 11.918 15.833 12.167 C 15.767 12.397 15.751 12.64 15.787 12.877 C 15.823 13.114 15.91 13.341 16.042 13.542 L 16.258 13.858 C 16.546 14.275 16.663 14.787 16.585 15.287 C 16.508 15.787 16.242 16.239 15.842 16.55 L 14.167 17.842 C 13.964 17.996 13.732 18.108 13.485 18.17 C 13.238 18.232 12.981 18.242 12.729 18.201 C 12.478 18.159 12.238 18.067 12.024 17.929 C 11.809 17.792 11.625 17.611 11.483 17.4 L 11.383 17.258 C 11.247 17.053 11.061 16.886 10.842 16.772 C 10.623 16.659 10.38 16.602 10.133 16.608 C 9.898 16.614 9.668 16.676 9.461 16.787 C 9.254 16.899 9.076 17.057 8.942 17.25 L 8.75 17.525 C 8.608 17.738 8.424 17.919 8.209 18.058 C 7.994 18.198 7.753 18.291 7.5 18.333 C 7.392 18.344 7.283 18.344 7.175 18.333 Z M 3.667 9.683 C 4.137 9.851 4.562 10.127 4.906 10.489 C 5.251 10.851 5.505 11.288 5.65 11.767 L 5.65 11.867 C 5.83 12.364 5.889 12.897 5.822 13.421 C 5.756 13.946 5.565 14.447 5.267 14.883 C 5.214 14.942 5.185 15.017 5.185 15.096 C 5.185 15.174 5.214 15.25 5.267 15.308 L 7.058 16.667 C 7.082 16.685 7.109 16.698 7.138 16.705 C 7.167 16.712 7.197 16.713 7.226 16.707 C 7.255 16.702 7.283 16.69 7.307 16.673 C 7.331 16.656 7.352 16.634 7.367 16.608 L 7.558 16.333 C 7.847 15.916 8.233 15.574 8.683 15.338 C 9.133 15.103 9.634 14.979 10.142 14.979 C 10.65 14.979 11.15 15.103 11.6 15.338 C 12.05 15.574 12.436 15.916 12.725 16.333 L 12.825 16.483 C 12.861 16.534 12.914 16.57 12.975 16.583 C 13.003 16.587 13.031 16.586 13.058 16.579 C 13.086 16.572 13.111 16.559 13.133 16.542 L 14.85 15.242 C 14.91 15.194 14.95 15.125 14.96 15.049 C 14.971 14.973 14.953 14.896 14.908 14.833 L 14.692 14.517 C 14.409 14.105 14.223 13.635 14.147 13.142 C 14.07 12.649 14.105 12.145 14.25 11.667 C 14.396 11.165 14.661 10.705 15.023 10.326 C 15.383 9.948 15.83 9.662 16.325 9.492 L 16.492 9.433 C 16.561 9.405 16.617 9.351 16.646 9.283 C 16.676 9.214 16.677 9.136 16.65 9.067 L 16 6.992 C 15.984 6.955 15.962 6.923 15.933 6.895 C 15.904 6.868 15.87 6.847 15.833 6.833 C 15.809 6.821 15.782 6.814 15.754 6.814 C 15.727 6.814 15.7 6.821 15.675 6.833 L 15.392 6.925 C 14.912 7.083 14.402 7.123 13.904 7.04 C 13.406 6.957 12.936 6.755 12.533 6.45 L 12.5 6.375 C 12.114 6.083 11.801 5.705 11.585 5.271 C 11.37 4.837 11.258 4.359 11.258 3.875 L 11.258 3.617 C 11.26 3.536 11.23 3.459 11.175 3.4 C 11.127 3.357 11.065 3.333 11 3.333 L 8.883 3.333 C 8.849 3.335 8.816 3.344 8.786 3.359 C 8.755 3.374 8.728 3.395 8.705 3.421 C 8.683 3.446 8.666 3.476 8.655 3.508 C 8.644 3.54 8.639 3.574 8.642 3.608 L 8.642 3.817 C 8.642 4.314 8.527 4.805 8.308 5.252 C 8.088 5.698 7.769 6.088 7.375 6.392 L 7.267 6.475 C 6.841 6.799 6.343 7.013 5.816 7.099 C 5.288 7.184 4.747 7.139 4.242 6.967 C 4.204 6.954 4.163 6.954 4.125 6.967 C 4.078 6.995 4.043 7.04 4.025 7.092 L 3.333 9.267 C 3.309 9.341 3.315 9.421 3.349 9.491 C 3.383 9.561 3.443 9.615 3.517 9.642 L 3.667 9.683 Z"
        fill="#ffffff"/>
    <path
        id="path_1"
        d="M 10 12.917 C 9.423 12.917 8.859 12.746 8.38 12.425 C 7.9 12.105 7.526 11.649 7.305 11.116 C 7.085 10.583 7.027 9.997 7.139 9.431 C 7.252 8.865 7.53 8.345 7.938 7.938 C 8.345 7.53 8.865 7.252 9.431 7.139 C 9.997 7.027 10.583 7.085 11.116 7.305 C 11.649 7.526 12.105 7.9 12.425 8.38 C 12.746 8.859 12.917 9.423 12.917 10 C 12.917 10.774 12.609 11.515 12.062 12.062 C 11.515 12.609 10.774 12.917 10 12.917 Z M 10 8.75 C 9.753 8.75 9.511 8.823 9.306 8.961 C 9.1 9.098 8.94 9.293 8.845 9.522 C 8.751 9.75 8.726 10.001 8.774 10.244 C 8.822 10.486 8.941 10.709 9.116 10.884 C 9.291 11.059 9.514 11.178 9.756 11.226 C 9.999 11.274 10.25 11.249 10.478 11.155 C 10.707 11.06 10.902 10.9 11.039 10.694 C 11.177 10.489 11.25 10.247 11.25 10 C 11.25 9.668 11.118 9.351 10.884 9.116 C 10.649 8.882 10.332 8.75 10 8.75 Z"
        fill="#ffffff"/>
</svg>
