<svg width="20" height="20" viewBox="0 0 20 20" fill="none" xmlns="http://www.w3.org/2000/svg">
<path d="M10.975 3.33335L15 7.35835V16.6667H4.99999V3.33335H10.975ZM11.6667 1.66668H4.99999C4.08333 1.66668 3.33333 2.41668 3.33333 3.33335V16.6667C3.33333 17.5833 4.08333 18.3333 4.99999 18.3333H15C15.9167 18.3333 16.6667 17.5833 16.6667 16.6667V6.66668L11.6667 1.66668ZM9.99999 11.6667C10.9167 11.6667 11.6667 10.9167 11.6667 10C11.6667 9.08335 10.9167 8.33335 9.99999 8.33335C9.08333 8.33335 8.33333 9.08335 8.33333 10C8.33333 10.9167 9.08333 11.6667 9.99999 11.6667ZM13.3333 14.525C13.3333 13.85 12.9333 13.25 12.3167 12.9833C11.6083 12.675 10.825 12.5 9.99999 12.5C9.17499 12.5 8.39166 12.675 7.68333 12.9833C7.06666 13.25 6.66666 13.85 6.66666 14.525V15H13.3333V14.525Z" fill="black"/>
</svg>
