<svg
    xmlns="http://www.w3.org/2000/svg"
    viewBox="0 0 146 146"
    id="vector">
    <path
        id="path_1"
        d="M 52.168 112.76 L 31.281 124.153 C 30.055 124.821 28.954 125.643 27.929 126.538 C 40.107 136.806 55.827 143 73.003 143 C 90.052 143 105.672 136.898 117.815 126.771 C 116.695 125.825 115.48 124.974 114.133 124.303 L 91.766 113.122 C 88.876 111.677 87.051 108.724 87.051 105.493 L 87.051 96.718 C 87.68 96.002 88.398 95.083 89.167 93.997 C 92.215 89.692 94.521 84.956 96.12 79.987 C 98.988 79.102 101.102 76.453 101.102 73.304 L 101.102 63.937 C 101.102 61.877 100.185 60.035 98.761 58.746 L 98.761 45.206 C 98.761 45.206 101.543 24.135 73.005 24.135 C 44.468 24.135 47.25 45.206 47.25 45.206 L 47.25 58.746 C 45.823 60.035 44.909 61.877 44.909 63.937 L 44.909 73.304 C 44.909 75.771 46.206 77.942 48.148 79.197 C 50.488 89.385 56.617 96.718 56.617 96.718 L 56.617 105.277 C 56.614 108.394 54.908 111.265 52.168 112.76 Z"
        fill="#000000"
        stroke-width="1"/>
</svg>
