<svg
    xmlns="http://www.w3.org/2000/svg"
    viewBox="0 0 64 64"
    id="vector">
    <path
        id="path"
        d="M 60.693 22.023 C 60.258 21.726 59.753 21.548 59.228 21.508 C 58.703 21.468 58.176 21.567 57.701 21.795 C 57.227 22.023 56.82 22.372 56.523 22.807 L 54.047 26.429 C 52.578 20.623 49.223 15.465 44.511 11.769 C 39.798 8.072 33.989 6.043 28 6 C 13.443 6 2 18.036 2 32.584 C 1.996 37.806 3.542 42.914 6.441 47.258 C 9.34 51.602 13.464 54.989 18.289 56.989 C 23.113 58.988 28.425 59.512 33.546 58.492 C 38.668 57.473 43.375 54.956 47.066 51.262 C 47.516 50.814 47.813 50.235 47.913 49.609 C 48.014 48.982 47.912 48.339 47.625 47.773 C 47.337 47.208 46.876 46.748 46.31 46.46 C 45.745 46.172 45.102 46.071 44.475 46.172 C 43.848 46.273 43.269 46.57 42.822 47.02 C 39.969 49.875 36.333 51.82 32.375 52.607 C 28.417 53.395 24.312 52.99 20.585 51.444 C 16.857 49.899 13.67 47.281 11.43 43.924 C 9.19 40.567 7.996 36.62 8 32.584 C 8 21.344 16.752 12 28 12 C 32.681 12.042 37.217 13.645 40.885 16.553 C 44.553 19.461 47.148 23.511 48.257 28.059 L 43.943 24.091 C 43.357 23.556 42.582 23.274 41.788 23.308 C 40.995 23.343 40.247 23.691 39.71 24.275 C 39.173 24.86 38.889 25.634 38.921 26.428 C 38.953 27.221 39.298 27.97 39.881 28.509 L 49.618 37.461 C 49.631 37.474 49.648 37.481 49.661 37.494 C 49.728 37.554 49.804 37.604 49.876 37.657 C 49.954 37.718 50.035 37.775 50.119 37.827 C 50.195 37.873 50.278 37.909 50.359 37.947 C 50.45 37.993 50.543 38.034 50.638 38.07 C 50.718 38.1 50.801 38.12 50.884 38.141 C 50.99 38.17 51.098 38.194 51.207 38.211 C 51.241 38.217 51.272 38.228 51.307 38.233 C 51.358 38.239 51.409 38.231 51.461 38.235 C 51.524 38.239 51.585 38.252 51.648 38.252 C 51.718 38.252 51.789 38.245 51.86 38.24 L 51.94 38.236 L 51.99 38.233 C 52.05 38.226 52.108 38.203 52.169 38.193 C 52.3 38.172 52.429 38.143 52.556 38.106 C 52.639 38.079 52.716 38.042 52.795 38.009 C 52.902 37.967 53.007 37.918 53.109 37.863 C 53.189 37.817 53.267 37.766 53.342 37.712 C 53.433 37.65 53.521 37.584 53.605 37.512 C 53.675 37.452 53.74 37.388 53.804 37.322 C 53.884 37.239 53.958 37.152 54.028 37.06 C 54.058 37.02 54.097 36.987 54.125 36.946 L 61.477 26.194 C 61.926 25.537 62.095 24.728 61.948 23.947 C 61.801 23.165 61.35 22.473 60.693 22.024 L 60.693 22.023 Z"
        fill="#ffffff"/>
    <path
        id="path_1"
        d="M 22.05 32.919 L 28.061 26.909 L 33.768 32.616 L 27.758 38.627 C 25.855 36.724 23.953 34.822 22.05 32.919 Z"
        fill="#ffffff"
        stroke="#ffffff"
        stroke-width="6"/>
</svg>
