<svg
    xmlns="http://www.w3.org/2000/svg"
    viewBox="0 0 32 32"
    id="vector">
    <path
        id="path"
        d="M 6.447 20.553 L 12 26 L 10 26 C 7.596 26 5.336 25.064 3.637 23.364 C 1.937 21.666 1 19.405 1 17 C 1 14.596 1.936 12.336 3.636 10.637 C 5.336 8.937 7.596 8 10 8 L 13.344 8 L 11.758 6.414 C 10.977 5.633 10.977 4.367 11.758 3.586 C 12.539 2.805 13.805 2.805 14.586 3.586 L 23 12 L 10 12 C 8.664 12 7.409 12.521 6.464 13.465 C 5.52 14.409 5 15.664 5 17 C 5 18.326 5.515 19.571 6.445 20.512 C 6.446 20.529 6.447 20.553 6.447 20.553 Z M 28.363 8.636 C 26.664 6.936 24.404 6 22 6 L 20 6 L 25.553 11.447 C 25.553 11.447 25.554 11.471 25.554 11.488 C 26.485 12.429 27 13.674 27 15 C 27 16.336 26.48 17.591 25.536 18.535 C 24.591 19.479 23.336 20 22 20 L 9 20 L 17.413 28.414 C 18.194 29.195 19.46 29.195 20.241 28.414 C 21.022 27.633 21.022 26.367 20.241 25.586 L 18.656 24 L 22 24 C 24.404 24 26.664 23.063 28.364 21.363 C 30.064 19.664 31 17.404 31 15 C 31 12.595 30.063 10.334 28.363 8.636 Z"
        fill="#ffffff"
        stroke-width="1"/>
</svg>
