<svg
    xmlns="http://www.w3.org/2000/svg"
    viewBox="0 0 20 20"
    id="vector">
    <path
        id="path"
        d="M 17.258 16.075 L 14.425 13.25 C 15.339 12.085 15.835 10.647 15.833 9.167 C 15.833 7.848 15.442 6.559 14.71 5.463 C 13.977 4.367 12.936 3.512 11.718 3.007 C 10.5 2.503 9.159 2.371 7.866 2.628 C 6.573 2.885 5.385 3.52 4.453 4.453 C 3.52 5.385 2.885 6.573 2.628 7.866 C 2.371 9.159 2.503 10.5 3.007 11.718 C 3.512 12.936 4.367 13.977 5.463 14.71 C 6.559 15.442 7.848 15.833 9.167 15.833 C 10.647 15.835 12.085 15.339 13.25 14.425 L 16.075 17.258 C 16.152 17.336 16.245 17.398 16.346 17.441 C 16.448 17.483 16.557 17.505 16.667 17.505 C 16.777 17.505 16.886 17.483 16.987 17.441 C 17.089 17.398 17.181 17.336 17.258 17.258 C 17.336 17.181 17.398 17.089 17.441 16.987 C 17.483 16.886 17.505 16.777 17.505 16.667 C 17.505 16.557 17.483 16.448 17.441 16.346 C 17.398 16.245 17.336 16.152 17.258 16.075 Z M 4.167 9.167 C 4.167 8.178 4.46 7.211 5.009 6.389 C 5.559 5.567 6.34 4.926 7.253 4.547 C 8.167 4.169 9.172 4.07 10.142 4.263 C 11.112 4.456 12.003 4.932 12.702 5.631 C 13.402 6.33 13.878 7.221 14.071 8.191 C 14.264 9.161 14.165 10.166 13.786 11.08 C 13.408 11.994 12.767 12.775 11.944 13.324 C 11.122 13.873 10.156 14.167 9.167 14.167 C 7.841 14.167 6.569 13.64 5.631 12.702 C 4.693 11.764 4.167 10.493 4.167 9.167 Z"
        fill="#ffffff"/>
</svg>
